<?xml version="1.0" encoding="utf-8"?>
<!-- Generator: Adobe Illustrator 20.1.0, SVG Export Plug-In . SVG Version: 6.00 Build 0)  -->
<svg version="1.1" id="Calque_1" xmlns="http://www.w3.org/2000/svg" xmlns:xlink="http://www.w3.org/1999/xlink" x="0px" y="0px"
	 viewBox="0 0 497.6244812 275.2990417" enable-background="new 0 0 497.6244812 275.2990417" xml:space="preserve">
<g>
	<path fill="#FFFFFF" d="M177.5910645,188.1990814c-19.7729492-5.7094727-37.5644531-16.3535156-50.0976486-29.9716797
		c-7.8022461-8.4770508-14.4560547-17.925293-20.6025391-26.8764648
		c-5.5458984-8.0781174-11.8500977-15.7827072-16.722168-21.5927658
		c-6.7626953-8.0639648-15.5229492-14.2558594-24.8105469-17.5649414c2.8842773-3.0249023,5.7290039-6.2041016,8.4711914-9.4682617
		c3.5371094-4.2099609,7.230957-8.3847656,10.8037109-12.421875c6.5107422-7.3569336,13.2431641-14.9648438,19.2749023-23.0737305
		c5.8178711-7.8203125,11.4008789-15.9975605,16.7998047-23.9057636c2.9643555-4.3413086,6.0292969-8.8305655,9.0947189-13.2045889
		c0.8095703-1.1552734,0.9282227-2.4204106,0.3334961-3.563477c-0.71875-1.3818359-2.428215-2.3466797-4.1577072-2.3466797
		c-1.3291016,0-2.4526367,0.5585938-3.1635742,1.5732422c-2.7333984,3.8999028-5.4370117,7.8173833-8.1396484,11.7329102
		c-12.8989258,18.6899433-26.2368164,38.0161133-42.4858398,54.5986328
		c-2.4423828,2.4921875-4.7084961,5.2246094-6.8994141,7.8666992c-1.7626953,2.125-3.5849609,4.3222656-5.4760742,6.3642578
		c-1.0551758,1.1396484-2.1845703,2.3129883-3.4418945,3.5766602c-0.2363281-0.0366211-0.4731445-0.0712891-0.7104492-0.1044922
		c4.5566406-24.4736328,8.6538086-49.246582,12.7963867-74.581543c0.1811523-1.105957-0.1362305-2.1762695-0.9165039-3.0947266
		c-1.1450195-1.3476562-3.2583008-2.2529297-5.2587891-2.2529297c-2.1918945,0-3.734375,1.1064453-4.0253906,2.8881836
		c-4.2646484,26.0830078-8.4868164,51.59375-13.2280273,76.8740234c-0.8061523,0.0834961-1.5683594,0.184082-2.3120117,0.3037109
		c-7.6357422,1.2280273-16.0888691,5.5620117-25.1250019,12.8823242c-5.7060537,4.621582-11.9663076,11.921875-9.3862295,20.4545898
		c0.4951172,1.6376953,1.9550781,2.7646484,3.8105469,2.940918c4.9511709,0.4707031,9.6098623-0.7158203,14.937499-3.8266602
		c4.5703125-2.6694336,9.0507832-5.777832,13.4067402-8.859375c-3.4814453,17.0917892-6.9736328,32.6298752-10.6577168,47.4238205
		c-0.2714844,1.0888672-0.03125,2.1547852,0.6938477,3.0825195c1.0844727,1.3876953,3.2070332,2.3203125,5.2817402,2.3203125
		c2.1904297,0,3.7568359-1.0405273,4.1904297-2.7822266c4.5454102-18.2495117,8.8305664-37.7636642,13.097168-59.6430588
		c2.284668-1.940918,4.5366211-3.9702148,6.7036133-6.0410156c13.2211914,3.4702148,22.1264648,14.4384766,30.7426758,25.050293
		c0.9223633,1.1357422,1.8388672,2.2646484,2.7543945,3.3764648c4.1323242,5.0175705,7.9677734,10.3886642,11.6767578,15.5830002
		c7.1279297,9.9819336,14.4985352,20.3037109,24.2914963,28.5551758
		c13.703125,11.5454102,29.0869141,19.8349609,45.7231445,24.6381836c0.4370117,0.1259766,0.8803711,0.1899414,1.3173828,0.1899414
		c0,0,0,0,0.0004883,0c2.3173828,0,3.9477539-1.737793,4.1850586-3.4174805
		C180.5505371,190.5418549,179.9221191,188.8714447,177.5910645,188.1990814z M43.5153885,97.6404953
		c-0.2587891,1.3388672-0.5209961,2.6767578-0.7827148,4.0146484l-0.0908203,0.4638672
		c-3.9589844,3.0415039-8.1972656,5.8266602-12.2993183,8.5224609l-2.1035156,1.3847656
		c-0.8618164,0.5688477-1.7114258,1.1650391-2.5595703,1.7607422c-3.1157227,2.1875-6.0751953,4.265625-9.5253906,4.9414062
		c0.5732422-6.565918,9.0859375-12.0317383,13.2924805-14.7324219
		C34.5261307,100.7347336,39.0378494,98.6927414,43.5153885,97.6404953z"/>
	<path fill="#FFFFFF" d="M489.9724121,77.8778c-0.3300781-1.8813477-2.4619141-3.4707031-4.6552734-3.4707031
		c-0.5253906,0-1.0390625,0.0893555-1.5263672,0.265625c-23.2666016,8.4199219-50.8515625,17.5556641-79.3066406,21.6118164
		c-1.3408203-3.0532227-3.3623047-5.6743164-6.1611328-7.9946289c-4.546875-3.7680664-10.828125-5.9296875-17.234375-5.9296875
		c-5.109375,0-9.7822266,1.3632812-13.5146484,3.9423828c-1.9716797,1.3642578-3.3603516,3.3349609-3.9335938,5.574707
		c-0.3300781,0.3613281-0.5751953,0.777832-0.7304688,1.2416992c-3.9824219,11.9575195-7.2636719,24.6049805-4.3359375,36.0854416
		c0.1816406,0.7114258,0.3984375,1.394043,0.6552734,2.0605469c-0.1738281,0.0620117-0.3388672,0.144043-0.4951172,0.2460938
		c-1.8388672,1.203125-3.9648438,2.4335938-5.796875,2.4335938c-1.2392578,0.0004883-2.1816406-0.5625-2.9658203-1.7714844
		c-1.3496094-2.0805664-2.3964844-4.4716721-3.5292969-7.1567307c-0.9902344-2.3457031-1.8154297-4.7963867-2.6132812-7.1665039
		c-0.9775391-2.9018555-1.9882812-5.9023438-3.3222656-8.7851562c-1.8271484-3.9482422-6.6806641-14.4355469-14.625-14.4355469
		c-0.5693359,0-1.1503906,0.0537109-1.7275391,0.1601562c-5.1230469,0.9428711-7.4873047,7.965332-9.0517578,12.6123047
		c-0.2148438,0.6367188-0.4130859,1.2265625-0.6005859,1.7451172c-0.3076172,0.8505859-0.59375,1.746582-0.8564453,2.6845703
		c-1.4716797-6.1079102-3.4501953-12.4555664-7.4931641-17.347168c-2.1269531-2.5727539-4.453125-3.8774414-6.9130859-3.8774414
		c-4.8369141,0-8.6367188,4.9897461-10.5800781,9.659668c-0.7988281,1.918457-1.7001953,3.8369141-2.5722656,5.6918945
		c-1.7207031,3.6650391-3.4921875,7.4345703-4.6035156,11.4667969c-0.2119141-3.9477539-0.4648438-7.9799805-1.0253906-11.8388672
		c-1.3701172-9.4414062-3.9287109-19.7861328-12.5175781-24.9262695c-0.8916016-0.5327148-1.6494141-0.7919922-2.3173828-0.7919922
		c-0.3818359,0-0.6875,0.0849609-0.9296875,0.2045898c-1.6494141-0.2900391-4.2763672,0.1948242-5.2358398,0.9072266
		c-5.4682617,4.0629883-5.2495117,10.9042969-5.0566406,16.9399414c0.0595703,1.8676758,0.1162109,3.6318359,0.0146484,5.2636719
		c-0.109375,1.7661133-0.2558594,3.6147461-0.4467773,5.6484375c-1.5996094,5.2495117-3.5292969,10.2353516-5.7348633,14.8198242
		c-1.6313477,3.3891602-3.2866211,5.8149338-5.2094727,7.6342697c-0.7666016,0.7246094-1.5576172,1.0771484-2.418457,1.0771484
		c-1.6733398,0-3.59375-1.3120117-5.4506836-2.5805664l-0.5112305-0.3486328
		c-4.3271484-2.9360275-7.1459961-7.8134689-7.5405273-13.0468674c-0.0834961-1.1083984-0.1162109-2.2514648-0.1474609-3.3574219
		c-0.1171875-4.0986328-0.2382812-8.3374023-2.9082031-12.0419922c-1.7358398-2.4082031-3.9575195-3.6293945-6.6035156-3.6293945
		c-7.2978516,0-15.6357422,9.6469727-18.0180664,12.6040039c-0.2978516,0.3706055-0.59375,0.7299805-0.9008789,1.0991211
		c-4.027832-2.5791016-8.8232422-3.9448242-13.4697266-5.2680664c-3.1328125-0.8920898-6.0917969-1.7348633-8.7905273-2.9145508
		c-1.9106445-0.8349609-3.1079102-1.9897461-3.559082-3.4316406c-0.6733398-2.152832,0.3896484-4.5576172,1.3999023-6.1958008
		c1.3466797-2.1850586,4.9233398-7.9882812,9.1542969-7.9882812c0.5043945,0,1.0180664,0.0805664,1.5268555,0.2397461
		c0.3833008,0.1196289,0.8227539,0.1806641,1.3056641,0.1806641c1.7895508,0,4.5175781-0.9116211,4.769043-2.559082
		c0.1118164-0.7324219-0.1821289-1.7382812-2.2158203-2.3745117c-1.6298828-0.5097656-3.3291016-0.7680664-5.0507812-0.7680664
		c-5.6274414,0-11.1821289,2.7607422-14.859375,7.3857422c-1.809082,2.2753906-3.0708008,4.3413086-3.8359375,6.2841797
		c-0.5532227-0.1015625-1.0410156-0.0883789-1.4501953,0.0385742c-1.9746094,0.605957-3.9404297,1.2382812-5.9052734,1.8701172
		l-0.9223633,0.2963867c-3.5375977-6.0288086-9.2910156-10.159668-16.6904297-11.9697266
		c-4.152832-1.0166016-7.6894531-1.5102539-10.8120117-1.5102539c-5.834465,0-10.2197189,1.7617188-13.0248947,5.2246094
		c-1.7988281,2.1469727-7.6723633,9.6152344-7.7275391,15.5644531c-0.0424805,4.5356445,0.8388672,9.1484375,2.7739258,14.5166016
		c2.8632812,7.9375,9.8696289,18.1928635,20.1928635,20.9736252c1.9287109,0.519043,3.9575195,0.7827148,6.0302734,0.7827148
		c7.6606445,0,14.8779297-3.5449219,18.8354492-9.2509766c5.1723633-7.4570236,5.503418-19.3862228,3.1611328-27.8012619
		c0.8178711-0.2705078,1.6328125-0.5424805,2.4443359-0.8134766c0.8950195-0.2988281,1.7856445-0.5961914,2.671875-0.8891602
		c0.4677734,1.4018555,1.2998047,2.6953125,2.4829102,3.855957c2.6943359,2.6455078,6.7075195,3.7983398,10.2485352,4.8149414
		c0.5327148,0.1533203,1.0546875,0.3027344,1.5581055,0.4541016l1.6420898,0.4887695
		c4.3408203,1.2841797,8.8291016,2.6118164,12.6362305,5.1152344c0.3540039,0.2329102,0.6904297,0.472168,1.0063477,0.7158203
		c-0.9848633,1.0410156-1.9267578,1.9916992-2.8598633,2.8867188c-3.7954102,3.6425781-6.4682617,6.8793945-8.4121094,10.1865158
		c-2.0073242,3.418457-2.1054688,6.640625-0.2695312,8.8408203c1.1074219,1.328125,2.5991211,2.0009766,4.4335938,2.0009766
		c2.7207031,0,5.6816406-1.5019531,7.84375-2.5991211l0.6567383-0.331543
		c5.1791992-2.5898438,9.2080078-7.2998047,10.2636719-11.9999924c0.7197266-3.2041016,0.1010742-6.3173828-1.7880859-9.0512695
		c0.5673828-0.6772461,1.1293945-1.3618164,1.690918-2.046875c3.3286133-4.0585938,6.4819336-7.9042969,10.8154297-10.2397461
		c1.8359375,2.7260742,1.9506836,6.1147461,2.0717773,9.6855469c0.0737305,2.184082,0.1503906,4.4418945,0.6323242,6.6279297
		c1.1894531,5.3959961,5.2226562,10.7001877,10.5249023,13.8432541c8.340332,4.940918,15.5981445,4.8779297,20.8930664-0.1474609
		c-0.1484375,0.9174805-0.2973633,1.8344727-0.4462891,2.7504883c-0.578125,3.5566406-1.1533203,7.0981445-1.6889648,10.612793
		c-0.9155273,6.0097656-1.9941406,12.1010742-3.296875,18.6118164
		c-21.8457031,24.0966797-46.5200195,61.4248047-40.519043,102.7910309
		c0.1904297,1.3149414,1.4125977,2.0263672,2.4023438,2.2363281c0.9541016,0.2011719,1.9038086,0.3032227,2.8232422,0.3032227
		c10.0605469,0,15.3916016-11.7929688,18.9194336-19.5966949l0.1323242-0.2929688
		c6.6748047-14.7587891,11.1933594-30.637207,15.6118164-46.9648438c3.331543-12.3129883,6.0561523-22.5883789,8.2734375-33.3720703
		c0.2124023-1.034668,0.4140625-2.0712891,0.6157227-3.1079102l0.0742188-0.3803711
		c1.9155273-2.0859375,3.8388672-4.1118164,5.7192383-6.0249023c0.9125977-0.9277344,0.7524414-1.7734375,0.5756836-2.1948242
		c-0.5751953-1.3725586-2.7568359-1.8271484-4.4526367-1.8261719c1.7211914-10.0439453,3.137207-20.128418,4.7143555-32.060051
		c0.3085938-2.3330078,0.5419922-4.7641602,0.7675781-7.1147461c0.2006836-2.0898438,0.4082031-4.25,0.668457-6.3549805
		c0.5454102-1.9443359,1.050293-3.8764648,1.5371094-5.7578125c1.628418-6.2954102,3.2075195-13.015625,3.862793-19.7719727
		c5.5908203,4.0244141,6.2460938,13.2319336,6.7773438,20.6875c0.1630859,2.3022461,0.3183594,4.4770508,0.6015625,6.3374023
		c0.4873047,3.2055664,0.7148438,6.5219727,0.9345703,9.7299805c0.3701172,5.4013596,0.7519531,10.9863205,2.3808594,16.3505783
		c0.3642578,1.1943359,3.2802734,4.0078125,5.1572266,4.0078125c0.9414062,0,1.6289062-0.5922852,1.8378906-1.5839844
		c0.4736328-2.2446289,0.9052734-4.512207,1.3232422-6.7050781c1.4501953-7.6113205,2.8203125-14.8002853,5.8886719-21.794426
		c0.4228516-0.9648438,0.8378906-1.9619141,1.2587891-2.9726562c1.6074219-3.859375,3.2705078-7.8505859,5.7333984-10.9272461
		c1.5361328-1.918457,2.2382812-2.1254883,2.46875-2.1254883c0.3984375,0,0.9599609,0.7368164,1.6708984,2.1904297
		c2.9453125,6.0249023,4.3378906,12.9233398,5.6835938,19.5947266l0.3603516,1.7758789
		c0.3251953,1.5957031,0.5869141,3.2167969,0.8632812,4.9335938c0.6259766,3.8735275,1.2724609,7.8793869,2.6953125,11.5014572
		c0.4912109,1.25,3.6074219,3.7817383,5.3427734,3.7817383c0.6582031,0,1.0537109-0.2963867,1.2685547-0.5449219
		c0.359375-0.4150391,0.4873047-0.9990234,0.3808594-1.7368164c-1.2412109-8.5932617-0.375-18.4565353,2.2607422-25.7416916
		l0.1943359-0.5371094c0.8994141-2.4951172,1.7490234-4.8520508,3.0009766-7.0966797
		c0.6572266-1.1772461,1.4873047-2.2207031,2.5390625-3.1894531c0.4482422-0.4125977,0.8769531-0.621582,1.2734375-0.621582
		c1.1171875,0,2.4550781,1.5395508,3.9775391,4.5761719c1.1875,2.3686523,2.3798828,5.7138672,3.6425781,9.2553711
		c4.0126953,11.253418,9.0058594,25.2592697,19.3447266,25.2592697c2.6035156,0,5.4169922-0.9282227,8.375-2.7607422
		c2.8916016,2.2163086,6.7207031,3.3837891,11.1289062,3.3837891h0.0009766c7.765625,0,16.4169922-3.5810547,21.5273438-8.9106445
		c5.5048828-5.7402267,8.8105469-13.7089767,9.5595703-23.0463791c0.1572266-1.9736328,0.1611328-3.862793,0.0117188-5.6303711
		c6.2490234-1.0166016,12.3105469-2.3681641,18.1806641-3.6767578l0.6484375-0.1445312
		c19.0576172-4.2475586,39.5087891-10.3608398,62.5205078-18.6894531
		C489.3630371,80.5814133,490.2282715,79.3397141,489.9724121,77.8778z M375.7907715,134.2537689
		c-2.0273438,0-3.8789062-0.4453125-5.5029297-1.3237305c-5.1757812-2.7978516-4.3789062-12.4682541-4.0380859-16.5981369
		c0.3564453-4.3378906,1.2451172-8.9604492,2.7832031-14.4672852c2.1123047,0.9355469,4.4492188,1.484375,6.2294922,1.9023438
		l0.1699219,0.0400391c6.5214844,1.5341797,13.7490234,1.8623047,22.4912109,1.0087891
		c0.4990234,7.0107422-1.5566406,14.5415039-5.5859375,20.3374023
		C389.2712402,129.5648041,382.4294434,134.2537689,375.7907715,134.2537689z M389.6843262,97.2938156
		c-14.8115234,0-17.2148438-2.3808594-17.5986328-3.1108398c-0.0830078-0.1567383-0.3339844-0.6347656,0.3691406-1.65625
		c1.6757812-2.4370117,4.9667969-2.9487305,7.4326172-2.9487305c3.7685547,0,7.7832031,1.1733398,10.0917969,2.3359375
		c2.5263672,1.2719727,4.4736328,3.0322266,5.8056641,5.2436523
		C394.2390137,97.2259445,392.0915527,97.2938156,389.6843262,97.2938156z M197.623291,122.5916672
		c-0.168457,3.8930664-3.7895508,7.7397385-7.8920898,10.2470627
		C190.6247559,129.5701752,194.9367676,125.1546555,197.623291,122.5916672z M140.1179199,100.3944016
		c-2.8901367,0.5532227-5.3134766,0.8222656-7.4082031,0.8222656c-2.6508789,0-4.7763596-0.4350586-6.3183517-1.2924805
		c-2.2226562-1.2358398-3.6855469-3.206543-3.8183594-5.1420898c-0.1049805-1.534668,0.6308594-2.9404297,2.1274414-4.0654297
		c2.1655273-1.6274414,4.8144455-2.418457,8.0986252-2.418457c3.6870117,0,7.4804688,1.0336914,10.0131836,1.8110352
		c3.2553711,1,5.7680664,3.5966797,7.4794922,7.7255859C146.3293457,99.0159836,143.1564941,99.8128586,140.1179199,100.3944016z
		 M148.6477051,126.3167648c-2.3759766,4.0029221-8.9775391,7.384758-14.4155273,7.384758
		c-2.2788086,0-4.1743164-0.5576172-5.6333008-1.6577148c-6.6611252-5.021965-9.8124924-12.9340744-11.2831955-18.6874924
		c-1.1162109-4.362793-0.7915039-8.7910156,0.9633789-13.1831055c0.0888672,0.0888672,0.1777344,0.175293,0.2661133,0.2592773
		c3.8037109,3.6000977,8.1479492,5.6157227,13.6708908,6.3447266c5.7124023,0.7529297,11.871582,0.1113281,19.9067383-2.140625
		c0.1298828,0.8500977,0.2290039,1.7021484,0.2973633,2.5439453
		C153.0148926,114.5389328,151.7106934,121.1561203,148.6477051,126.3167648z M241.7756348,181.1458588
		c-0.8754883,3.7514648-1.8046875,7.5605469-2.7753906,11.3720703c-3.262207,12.8095703-7.765625,29.5883789-13.6816406,45.7700195
		c-1.9887695,5.4394531-4.7553711,12.5385742-8.527832,19.2085114c-1.4472656,2.5600586-2.7993164,4.5078125-4.2392578,6.1049805
		C210.1286621,236.9183197,219.9523926,209.2064056,241.7756348,181.1458588z"/>
</g>
</svg>
