<svg viewBox="0 0 24 24">
	<path fill="none" d="M0,0h24v24H0V0z"/>
	<path d="M16.5,3c-1.7399998,0-3.4099998,0.8099999-4.5,2.0900002C10.9099998,3.8099999,9.2399998,3,7.5,3
		C4.4200001,3,2,5.4200001,2,8.5c0,3.7799997,3.4000001,6.8600006,8.5500002,11.5400009L12,21.3500004l1.4499998-1.3199997
		C18.6000004,15.3599997,22,12.2799997,22,8.5C22,5.4200001,19.5799999,3,16.5,3z M12.1000004,18.5499992L12,18.6499996
		l-0.1000004-0.1000004C7.1399999,14.2399998,4,11.3900003,4,8.5C4,6.5,5.5,5,7.5,5c1.54,0,3.04,0.9899998,3.5699997,2.3599997
		h1.8699999C13.46,5.9899998,14.96,5,16.5,5c2,0,3.5,1.5,3.5,3.5C20,11.3900003,16.8600006,14.2399998,12.1000004,18.5499992z"/>
</svg>