<svg viewBox="0 0 54.1741257 54.1741257">
	<g>
		<circle cx="27.0870628" cy="26.792141" r="4.6196594"/>
		<path d="M38.3329124,20.6660423c0-2.822998-2.296875-5.1198111-5.1199951-5.1198111H20.9609032
			c-2.822998,0-5.119628,2.296813-5.119628,5.1198111v12.2520142c0,2.8231201,2.2966299,5.1199951,5.119628,5.119812h12.2521973
			c2.8231201,0,5.1199951-2.2966919,5.1199951-5.119812h-0.0001831V20.6660423z M27.0870628,33.8378563
			c-3.8851318,0-7.0457764-3.1605225-7.0457764-7.0454712c0-3.8851318,3.1606445-7.0458374,7.0457764-7.0458374
			s7.0458374,3.1607056,7.0458374,7.0458374C34.1329002,30.6773338,30.9721947,33.8378563,27.0870628,33.8378563z
			 M35.6867332,20.7268944c-0.331604,0.329895-0.7893066,0.520752-1.2583618,0.520752
			c-0.4674072,0-0.9267578-0.1908569-1.2567139-0.520752c-0.331543-0.331604-0.5223999-0.7907715-0.5223999-1.2583618
			c0-0.4690552,0.1906738-0.9283447,0.5223999-1.2583008c0.3301392-0.331604,0.7893066-0.520813,1.2567139-0.520813
			c0.4690552,0,0.9284058,0.189209,1.2583618,0.520813c0.331543,0.3299561,0.520752,0.7892456,0.520752,1.2583008
			C36.2074852,19.9359398,36.0182762,20.3952904,35.6867332,20.7268944z"/>
		<path d="M27.0870628,2.261075c-13.6889639,0-24.8259888,11.1369629-24.8259888,24.8259888
			c0,13.6879883,11.1370239,24.8259888,24.8259888,24.8259888c13.6879883,0,24.8259888-11.1380005,24.8259888-24.8259888
			C51.9130516,13.3980379,40.7770653,2.261075,27.0870628,2.261075z M40.7589989,32.9180565
			c0,4.1607056-3.3850708,7.5458984-7.5460815,7.5458984H20.9609032c-4.1607056,0-7.5457144-3.3850098-7.5457144-7.5458984
			V20.6660423c0-4.1607056,3.3850088-7.5458975,7.5457144-7.5458975h12.2520142c4.1610107,0,7.5462036,3.3851919,7.5460815,7.5458975
			V32.9180565z"/>
	</g>
</svg>