<svg viewBox="0 0 54.1741257 54.1741257">
	<g>
		<g>
			<path fill="#010002" d="M27.0870628,2.2610636c-13.7101488,0-24.8260002,11.1158504-24.8260002,24.8260002
				S13.376914,51.913063,27.0870628,51.913063S51.913063,40.7972145,51.913063,27.0870628
				C51.913063,13.3737898,40.7972145,2.2610636,27.0870628,2.2610636z M41.8336678,20.3312397
				c-1.6664238,9.3780499-10.9668522,17.3192272-13.7628765,19.131525c-2.7991486,1.8123016-5.3500004-0.7261505-6.277874-2.6501503
				c-1.0582237-2.1847-4.2328014-14.0639-5.0645008-15.0476265c-0.8316994-0.9837246-3.3266993,0.9837246-3.3266993,0.9837246
				l-1.2102509-1.5857735c0,0,5.0676241-6.0482264,8.921874-6.8085508c4.0870247-0.8037739,4.0807743,6.2778749,5.0645008,10.206624
				c0.9526768,3.8015232,1.5888996,5.9737263,2.4205017,5.9737263c0.8316994,0,2.423624-2.1164494,4.1583977-5.3655243
				c1.7440491-3.2522011-0.0744972-6.1258507-3.4787235-4.0839005
				C30.6434155,12.9207382,43.4970627,10.9564123,41.8336678,20.3312397z"/>
		</g>
	</g>
</svg>