<svg viewBox="0 0 24 24">
	<path fill="none" d="M0,0.0002344h24v24H0V0.0002344z"/>
	<path d="M21,19.0002346v-14c0-1.1000001-0.8999996-2.0000002-2-2.0000002h-4.5781593c-1.1000004,0-2,0.9000001-2,2.0000002v14
		c0,1.1000004,0.8999996,2,2,2H19C20.1000004,21.0002346,21,20.100235,21,19.0002346z M14.5,18.0002346v-6l4.5,6H14.5z"/>
	<path d="M11.6219788,19.0002346v-14c0-1.1000001-0.8999996-2.0000002-2-2.0000002H5.0438199c-1.0999999,0-2,0.9000001-2,2.0000002
		v14c0,1.1000004,0.9000001,2,2,2h4.5781589C10.7219791,21.0002346,11.6219788,20.100235,11.6219788,19.0002346z
		 M5.1219792,18.0002346v-6l4.4999995,6H5.1219792z"/>
</svg>