<svg viewBox="0 0 54.1741257 54.1741257">
	<g>
		<g>
			<path d="M27.0870628,2.2610636c-13.6889992,0-24.8260002,11.1370001-24.8260002,24.8260002
				c0,13.6879997,11.1370001,24.8260002,24.8260002,24.8260002c13.6879997,0,24.8260002-11.1380005,24.8260002-24.8260002
				C51.913063,13.3980637,40.7770615,2.2610636,27.0870628,2.2610636z M33.2610626,27.9610634h-4.0389996
				c0,6.4529991,0,14.3959999,0,14.3959999h-5.9850006c0,0,0-7.8660011,0-14.3959999h-2.8449993V22.873064h2.8449993v-3.2910004
				c0-2.3570004,1.1200008-6.039999,6.039999-6.039999l4.4350014,0.0170002v4.9389992c0,0-2.6950016,0-3.2190018,0
				s-1.269001,0.2619991-1.269001,1.3859997v2.9899998h4.5600014L33.2610626,27.9610634z"/>
		</g>
	</g>
</svg>