<svg viewBox="0 0 54.1741257 54.1741257">
	<g>
		<g>
			<path d="M27.0870628,2.2610636c-13.6889992,0-24.8260002,11.1370001-24.8260002,24.8260002
				c0,13.6879997,11.1370001,24.8260002,24.8260002,24.8260002c13.6879997,0,24.8260002-11.1380005,24.8260002-24.8260002
				C51.913063,13.3980637,40.7770615,2.2610636,27.0870628,2.2610636z M38.1620636,21.4050617
				c0.0110016,0.2460003,0.0169983,0.4939995,0.0169983,0.7420006c0,7.5510006-5.7459984,16.2549992-16.2590008,16.2549992
				c-3.2269993,0-6.230999-0.9430008-8.7589989-2.5649986c0.4469995,0.0530014,0.9020004,0.0800018,1.3629999,0.0800018
				c2.6779985,0,5.1409998-0.9140015,7.0969992-2.4459991c-2.5-0.0459976-4.6110001-1.698-5.3379993-3.9689999
				c0.3479996,0.066,0.7070007,0.1030006,1.0740013,0.1030006c0.5209999,0,1.0269985-0.0680008,1.5059986-0.1989994
				c-2.6140003-0.5240002-4.5829992-2.8330002-4.5829992-5.6030006c0-0.0240002,0-0.0489998,0.0010004-0.0720005
				c0.7699995,0.427,1.651,0.6849995,2.5869999,0.7140007c-1.5319996-1.0230007-2.5409994-2.7730007-2.5409994-4.7549992
				c0-1.0480003,0.2810001-2.0299988,0.7729998-2.8740005c2.8169994,3.4580002,7.0289993,5.7320004,11.7770004,5.9720001
				c-0.0979996-0.4190006-0.1469994-0.8540001-0.1469994-1.3029995c0-3.1550007,2.5580006-5.7139997,5.7130013-5.7139997
				c1.6439972,0,3.1269989,0.6939993,4.1709976,1.8039999c1.3030014-0.2560005,2.5229988-0.7300014,3.6300011-1.387001
				c-0.4300003,1.335001-1.3330002,2.4540005-2.5159988,3.1620007c1.1570015-0.1380005,2.2610016-0.4440002,3.2820015-0.8990002
				C40.2480621,19.5950623,39.2790642,20.6020622,38.1620636,21.4050617z"/>
		</g>
	</g>
</svg>