<svg viewBox="0 0 54.1741257 54.1741257">
	<g>
		<g>
			<path d="M22.5632725,32.5282135c3.725296-1.9317303,7.4180851-3.8456802,11.144907-5.7784271
				c-3.7379971-1.9505234-7.4297676-3.8756504-11.144907-5.8144894
				C22.5632725,24.8129768,22.5632725,28.6510372,22.5632725,32.5282135z"/>
			<path d="M27.0870628,2.2610636c-13.7105551,0-24.8260002,11.1149368-24.8260002,24.8260002
				S13.3765078,51.913063,27.0870628,51.913063S51.913063,40.7981262,51.913063,27.0870628
				S40.7976189,2.2610636,27.0870628,2.2610636z M44.0022697,35.3737411
				c-0.4297256,1.8641739-1.954586,3.2391891-3.7898064,3.4438934c-4.3465157,0.4861069-8.7453537,0.4886475-13.1264133,0.4861069
				c-4.3810577,0.0025406-8.7809124,0-13.1284466-0.4861069c-1.8352184-0.2047043-3.3590651-1.5797195-3.7877741-3.4438934
				c-0.611062-2.6555557-0.611062-5.5534019-0.611062-8.2866764s0.0071106-5.6321373,0.6181736-8.2866764
				c0.428709-1.864172,1.9525557-3.2396975,3.7877741-3.4449091c4.3475351-0.4855986,8.7473879-0.4881392,13.1284456-0.4855986
				c4.3800449-0.0025396,8.7798977,0,13.125906,0.4855986c1.836235,0.2052116,3.3610954,1.5802298,3.7898064,3.4449091
				c0.6110649,2.6550503,0.6059837,5.5534039,0.6059837,8.2866764S44.6133308,32.7186928,44.0022697,35.3737411z"/>
		</g>
	</g>
</svg>