<svg viewBox="0 0 108.2979126 111.9493866">
	<g>
		<g>
			<g>
				<g>
					<path d="M42.4040184,96.0178452c-1.5692863-2.1913986-5.1934013-4.0449982-5.1836014-4.0996017
						c0.0225029-0.0038986-1.5790977,3.3281021-0.180687,5.875c1.4160881,2.5400009,3.778389,3.4453049,5.3017883,2.8271027
						C43.9001198,99.9924469,43.9665184,98.2727432,42.4040184,96.0178452z M19.1833191,45.677948
						c0.0107002,0.0234985-3.4540997-1.2988014-5.8231993,0.3456993c-2.3613882,1.6543007-2.9825001,4.0644989-2.2061005,5.5069008
						c0.7803001,1.4813995,2.4863005,1.419899,4.5352001-0.2901001
						C17.6755199,49.5314445,19.1169186,45.6818466,19.1833191,45.677948z M18.1169186,43.4309464
						c2.3623009-1.2695999,4.8154011-4.8037987,4.8887005-4.7958984c0.0058002,0.0184975-3.0937996-2.0108032-5.8731003-0.8682022
						c-2.7675991,1.1562004-3.9784994,3.410099-3.562499,4.9961014
						C13.9880199,44.3898468,15.6833191,44.6935463,18.1169186,43.4309464z M10.7829199,60.5295448
						c1.0723,1.2773018,2.7226992,0.8584023,4.3398113-1.2353973c1.5566874-2.0848999,2.0683889-6.0996017,2.1269999-6.1142006
						c0.0155888,0.0233994-3.6377115-0.5429993-5.5527115,1.535099C9.7966194,56.8078461,9.7185192,59.2795448,10.7829199,60.5295448
						z M11.9899197,63.5236473c-1.4022999,2.4394951-0.9765005,4.889698,0.3066998,5.889698
						c1.3076,1.0332031,2.8241997,0.2801971,3.9687004-2.1182022c1.0907993-2.3768997,0.736412-6.4110985,0.7880993-6.4364967
						C17.0720196,60.8820457,13.4118195,61.0891457,11.9899197,63.5236473z M51.6745186,101.8703461
						c1.4639015-0.9893036,1.1240005-2.6631012-0.9931984-4.4541016c-2.1328011-1.7275009-6.1953011-2.6875-6.1933022-2.7471008
						c0.0263023-0.0135956-0.8446999,3.597702,1.1406021,5.740303
						C47.630619,102.5441437,50.2517319,102.8459473,51.6745186,101.8703461z M2.5739198,61.5715446
						c-0.0829999-0.0175972,0.7372999,5.850605,3.1679997,8.0517006c2.3437004,2.2099991,4.0478115,1.8163986,4.5946999,0.2901001
						c0.5615005-1.569397-0.1103001-3.7256012-2.1455002-5.9873009C6.1638198,61.6545448,2.5837314,61.5471458,2.5739198,61.5715446z
						 M4.5368199,72.1633453c-0.0780883,0,1.8886995,5.6102982,4.6776996,7.2861023
						c2.7022123,1.6894989,4.2774,0.9452972,4.5108004-0.6816025c0.2402-1.6621017-0.8291006-3.6572952-3.2627001-5.4570999
						C8.0417318,71.4943466,4.5456195,72.1379471,4.5368199,72.1633453z M22.5563202,36.1662445
						c2.6874981-0.7782974,6.207098-3.8505974,6.2910995-3.8349991c0.0009003,0.0264015-2.5235004-2.6463985-5.6631012-2.0594997
						c-3.1269989,0.6084003-4.9599991,2.615202-4.9755878,4.292902
						C18.1911201,36.2736473,19.7829189,36.9299469,22.5563202,36.1662445z M34.9518204,92.7814484
						c-1.0166016-2.5018997-4.1279011-5.0927048-4.1142006-5.1406021c0.0272999,0-2.2188015,2.8984985-1.4092007,5.6903992
						c0.8330002,2.7862015,2.8858013,4.1933975,4.4638996,3.9239044
						C35.5065193,96.9953461,35.943119,95.3273468,34.9518204,92.7814484z M7.8649197,54.3078461
						c-1.5057998-2.642601-4.9969997-3.5078011-5.0174999-3.4863014c-0.086-0.0303001-0.5274,5.8768997,1.4287,8.5332031
						c1.8622999,2.6376991,3.6219997,2.6112976,4.4697003,1.2372971C9.6179199,59.1935463,9.3981199,56.9475479,7.8649197,54.3078461
						z M40.970417,108.883049c-0.059597,0.0849991,5.955101,1.1728973,8.9688034-0.5791016
						c2.9608994-1.652298,3.0809975-3.4384995,1.6581993-4.385704c-1.4512024-0.9794998-3.8456879-0.9589996-6.6758003,0.300705
						C42.0866203,105.4514465,40.9567299,108.8635483,40.970417,108.883049z M21.8679199,99.0412445
						c-0.0655003,0.0468979,4.6639996,3.5868988,7.8719997,3.3037033c3.147501-0.2158051,3.9805012-1.777298,3.2236996-3.2646027
						c-0.7784004-1.517601-2.7803001-2.5362015-5.7304993-2.597702
						C24.2761192,96.3947449,21.8630199,99.0148468,21.8679199,99.0412445z M30.7966194,105.035347
						c-0.0615005,0.0673981,5.3661995,2.489296,8.517601,1.4776001c3.0956993-0.9248047,3.597599-2.6397018,2.5028992-3.9111023
						c-1.1161995-1.3007965-3.3389015-1.8349991-6.2743874-1.2442017
						C32.60812,101.9289474,30.7888184,105.0119476,30.7966194,105.035347z M28.1852188,27.2766457
						c2.5606003-2.0546989,3.527401-5.9941998,3.527401-5.9941998s-4.2422009-0.2470989-6.9745998,1.7754002
						c-3.4610004,2.5547009-3.3770008,4.4696999-2.4287014,5.4032993
						C23.3278198,29.4250469,25.2292194,29.6418457,28.1852188,27.2766457z M28.4626198,87.9826431
						c-0.4648876-2.6532974-2.9941006-5.8358994-2.9727001-5.8798981c0.0263996,0.0069046-2.7656002,2.3526001-2.5361004,5.2432022
						c0.2451,2.8866959,1.9570007,4.6981964,3.5449123,4.7763977C28.1169186,92.2131424,28.8972187,90.6789474,28.4626198,87.9826431
						z M14.3825197,91.2990494c-0.0703001,0.0292969,3.8534994,4.4794998,7.0225,4.8944931
						c3.097599,0.4639053,4.2334003-0.8817978,3.8114986-2.4881973c-0.4375-1.6533966-2.1728992-3.0722961-5.0565987-3.7618027
						C17.2868195,89.2365494,14.3825197,91.2717438,14.3825197,91.2990494z M8.5407314,82.2062454
						c-0.0781116,0.0147018,2.9247885,5.149498,5.9580002,6.2266006c2.9540882,1.1025009,4.3368874,0.0381012,4.243187-1.6201019
						c-0.0917988-1.6952972-1.5214996-3.4413986-4.2284994-4.7099991
						C11.8112192,80.8146439,8.5427313,82.1789474,8.5407314,82.2062454z M15.5349197,77.8664474
						c1.4668121,0.75,2.789999-0.3153992,3.4344997-2.922905c0.594799-2.5838928-0.553688-6.4832993-0.5165997-6.5125961
						c0.0195999,0.0146027-3.4843006,0.982399-4.3789005,3.6766968
						C13.1970196,74.8156433,14.0915194,77.1457443,15.5349197,77.8664474z M23.0798187,81.9387436
						c0.0762005-2.6757965-1.7959003-6.2939987-1.7636986-6.3349991c0.0243988,0.0137024-3.193388,1.7070007-3.5351009,4.5557022
						c-0.323288,2.8612976,1.0009003,4.9756012,2.5410004,5.3906021
						C21.8923187,85.9807434,22.9685192,84.6506424,23.0798187,81.9387436z M20.4128189,27.6232471
						c0.8174-3.1435013-1.2900867-5.9834003-1.3310871-5.9775009c-0.0918121-0.0674-5,4.6387005-5.2636127,8.0126991
						c-0.3652992,3.3076,1.0839005,4.3476009,2.7109013,3.7324009
						C18.2087307,32.7521477,19.6247311,30.7609463,20.4128189,27.6232471z M9.6813192,44.8195457
						c-0.8710995-2.9286995-4.1014996-4.5155983-4.1229997-4.5c-0.0878997-0.0429001-1.9062998,5.6807022-0.5537,8.6953011
						c1.2529001,2.9756012,2.9951119,3.3223,4.1299,2.1553001C10.2966194,49.972847,10.5778198,47.7346458,9.6813192,44.8195457z
						 M13.8044195,35.7990456c-0.0966883-3.0908012-2.8711004-5.3505993-2.9033003-5.3397999
						c-0.0859995-0.0546989-3.3935995,5.2705021-2.778388,8.5234013c0.510788,3.2061005,2.1523886,3.9130974,3.5468884,3.0009995
						C13.0983191,41.0549469,13.9274197,38.8889465,13.8044195,35.7990456z"/>
				</g>
			</g>
			<g>
				<g>
					<path d="M65.9665146,100.6203461c1.5186005,0.6182022,3.8799057-0.2871017,5.2988052-2.8271027
						c1.3984985-2.5468979-0.2070007-5.8788986-0.1845016-5.875c0.0117035,0.0546036-3.615303,1.9082031-5.1875,4.0996017
						C64.337616,98.2727432,64.4050217,99.9924469,65.9665146,100.6203461z M92.6130142,51.240448
						c2.0488052,1.7099991,3.7597198,1.7714996,4.5438995,0.2901001c0.7695999-1.4424019,0.1494064-3.8526001-2.2137985-5.5069008
						c-2.3702011-1.6445007-5.8330002-0.3222008-5.8193817-0.3456993
						C89.1833191,45.6818466,90.6335144,49.5314445,92.6130142,51.240448z M94.730217,42.7629471
						c0.4179001-1.5860023-0.7881012-3.839901-3.5615997-4.9961014c-2.777298-1.142601-5.8778839,0.8866997-5.868103,0.8682022
						c0.0781021-0.0079002,2.5283051,3.5262985,4.8887024,4.7958984
						C92.6218185,44.6935463,94.3161163,44.3898468,94.730217,42.7629471z M96.6091156,54.7150459
						c-1.919899-2.0780983-5.5634995-1.5116997-5.5575943-1.535099c0.0643997,0.0145988,0.5742111,4.0293007,2.1278992,6.1142006
						c1.6190948,2.0937996,3.2695007,2.5126991,4.3436966,1.2353973
						C98.5856171,59.2795448,98.5056152,56.8078461,96.6091156,54.7150459z M91.2468185,60.8586464
						c0.0526962,0.0253983-0.3018036,4.059597,0.7929153,6.4364967c1.1435852,2.3983994,2.6611862,3.1514053,3.9638824,2.1182022
						c1.2842026-1,1.7108994-3.4502029,0.3096008-5.889698C94.8942184,61.0891457,91.230217,60.8820457,91.2468185,60.8586464z
						 M62.6765175,100.4094467c1.9863014-2.142601,1.1132126-5.7538986,1.1385994-5.740303
						c0,0.0596008-4.0594978,1.0195999-6.1932983,2.7471008c-2.1192017,1.7910004-2.4580002,3.464798-0.9950867,4.4541016
						C58.0515175,102.8459473,60.6726189,102.5441437,62.6765175,100.4094467z M100.1140137,63.9260445
						c-2.0401001,2.2616997-2.7099991,4.4179039-2.1464996,5.9873009c0.5449066,1.5262985,2.2549057,1.919899,4.5957031-0.2901001
						c2.4316025-2.2010956,3.2480011-8.0692978,3.1601028-8.0517006
						C105.7214203,61.5471458,102.1384201,61.6545448,100.1140137,63.9260445z M97.8444138,73.3107452
						c-2.4375,1.7998047-3.5048981,3.7949982-3.2675934,5.4570999c0.2333984,1.6268997,1.8125,2.3711014,4.5167007,0.6816025
						c2.7879944-1.6758041,4.7528992-7.2861023,4.6717987-7.2861023
						C103.757515,72.1379471,100.2634201,71.4943466,97.8444138,73.3107452z M90.0964203,34.5646477
						c-0.0166016-1.6777-1.8466873-3.6845016-4.9785004-4.292902c-3.1348038-0.5868988-5.6651001,2.0859013-5.6651001,2.0594997
						c0.088913-0.0155983,3.6113968,3.0567017,6.2939987,3.8349991
						C88.5270157,36.9299469,90.1149139,36.2736473,90.0964203,34.5646477z M74.4118195,97.2551498
						c1.5830002,0.2694931,3.6376953-1.1377029,4.4629135-3.9239044c0.8095856-2.7919006-1.4326172-5.6903992-1.4102173-5.6903992
						c0.0166016,0.0478973-3.0936966,2.6387024-4.1112976,5.1406021
						C72.3601151,95.3273468,72.7976151,96.9953461,74.4118195,97.2551498z M99.5583191,60.5920448
						c0.8496017,1.3740005,2.6102982,1.4004021,4.4686966-1.2372971c1.955101-2.6563034,1.5108032-8.5635033,1.4327164-8.5332031
						c-0.0235138-0.0214996-3.5137177,0.8437004-5.0215149,3.4863014
						C98.9060211,56.9475479,98.6862183,59.1935463,99.5583191,60.5920448z M63.380619,104.2189484
						c-2.8251991-1.2597046-5.2237015-1.2802048-6.6796989-0.300705c-1.4209023,0.9472046-1.2979012,2.7334061,1.6649971,4.385704
						c3.0137024,1.7519989,9.0264015,0.6641006,8.9696999,0.5791016
						C67.3503189,108.8635483,66.2214203,105.4514465,63.380619,104.2189484z M81.0739212,96.4826431
						c-2.9531021,0.0615005-4.9570007,1.080101-5.7324066,2.597702c-0.7636948,1.4873047,0.080101,3.0487976,3.2256012,3.2646027
						c3.2012024,0.2831955,7.9316177-3.2568054,7.8701019-3.3037033
						C86.4440155,99.0148468,84.0290146,96.3947449,81.0739212,96.4826431z M72.7614212,101.3576431
						c-2.9336014-0.5907974-5.1572037-0.0565948-6.2733994,1.2442017c-1.0947037,1.2714005-0.5957031,2.9862976,2.5028992,3.9111023
						c3.1493988,1.0116959,8.5800934-1.410202,8.5165939-1.4776001
						C77.5153198,105.0119476,75.6970215,101.9289474,72.7614212,101.3576431z M85.9948196,28.4611454
						c0.9472961-0.9335995,1.0331955-2.8485985-2.430603-5.4032993c-2.730484-2.0224991-6.9747009-1.7754002-6.9747009-1.7754002
						s0.9649048,3.9395008,3.530304,5.9941998C83.0720215,29.6418457,84.9743195,29.4250469,85.9948196,28.4611454z
						 M81.8093185,92.122345c1.5820007-0.0782013,3.2938995-1.8897018,3.5410004-4.7763977
						c0.2225952-2.8906021-2.5595856-5.2362976-2.5371017-5.2432022c0.0205154,0.0439987-2.5077972,3.2266006-2.9717026,5.8798981
						C79.4099197,90.6789474,80.1872177,92.2131424,81.8093185,92.122345z M88.1442184,89.9435425
						c-2.8827972,0.6895065-4.6162033,2.1084061-5.0576019,3.7618027c-0.4227982,1.6063995,0.7149048,2.9521027,3.8125,2.4881973
						c3.1689987-0.4149933,7.0957031-4.8651962,7.0234985-4.8944931
						C93.9226151,91.2717438,91.0212173,89.2365494,88.1442184,89.9435425z M93.7897339,82.1027451
						c-2.7089157,1.2686005-4.1357193,3.0147018-4.2304153,4.7099991c-0.0938034,1.6582031,1.2929001,2.7226028,4.2480011,1.6201019
						c3.0302963-1.0771027,6.0351944-6.2118988,5.9618988-6.2266006
						C99.7634201,82.1789474,96.4880142,80.8146439,93.7897339,82.1027451z M94.230217,72.1076431
						c-0.8936005-2.6942978-4.4013977-3.6620941-4.3788986-3.6766968c0.0390015,0.0292969-1.1083984,3.9287033-0.5175858,6.5125961
						c0.643486,2.6075058,1.9696884,3.672905,3.4354858,2.922905C94.2116165,77.1457443,95.1071167,74.8156433,94.230217,72.1076431z
						 M87.9851151,85.5500488c1.5351028-0.4150009,2.863205-2.5293045,2.5332031-5.3906021
						c-0.3359985-2.8487015-3.5547028-4.5419998-3.5313034-4.5557022c0.0322037,0.0410004-1.8407974,3.6592026-1.7675934,6.3349991
						C85.3337326,84.6506424,86.41082,85.9807434,87.9851151,85.5500488z M91.7741165,33.3908463
						c1.6259995,0.6152,3.0752029-0.4248009,2.7118988-3.7324009c-0.2626953-3.3739986-5.1757965-8.0800991-5.2626953-8.0126991
						c-0.0400009-0.0058994-2.1504059,2.8339996-1.3330002,5.9775009
						C88.6726151,30.7609463,90.0964203,32.7521477,91.7741165,33.3908463z M99.1696167,51.1701469
						c1.1348038,1.1669998,2.8759995,0.8203011,4.1298981-2.1553001c1.3467026-3.0145988-0.469696-8.7382011-0.5546951-8.6953011
						c-0.0233994-0.0155983-3.2509995,1.5713005-4.1190872,4.5C97.730217,47.7346458,98.0056152,49.972847,99.1696167,51.1701469z
						 M96.6315155,41.9836464c1.3955002,0.9120979,3.0371017,0.205101,3.5498047-3.0009995
						c0.6122971-3.2528992-2.6943054-8.5781002-2.7773056-8.5234013c-0.0331955-0.0107994-2.8056946,2.2489986-2.9042816,5.3397999
						C94.3757324,38.8889465,95.2038193,41.0549469,96.6315155,41.9836464z"/>
				</g>
			</g>
		</g>
		<g>
			<path d="M38.9508858,59.6059952c-0.1166916,0.7425156-0.2534523,1.4263191-0.4875793,2.1881599
				c-0.2348709,0.703125-0.5663643,1.40625-0.9573212,2.0506592c-0.3322372,0.6250801-0.703125,1.1921883-1.2115173,1.6604424
				c0.7031288,0.801239,1.4062538,1.7585602,2.1294441,2.6571579c-0.8986015,0.5269775-1.6604462,1.0152969-2.5203972,1.5430145
				c-0.4296036-0.9573212-0.8785362-1.9926834-1.3869247-2.9299393c-0.077301,0.0193253-0.1166916,0.0386505-0.156086,0.0579758
				c-0.6837997,0.312912-1.4449005,0.4690018-2.265461,0.4690018c-0.5277157,0-1.0554295-0.0587234-1.4850349-0.2341309
				c-0.4296055-0.1174316-0.8004932-0.3515625-1.1327305-0.6837997c-0.3515625-0.3121719-0.6050148-0.703125-0.781168-1.1721268
				c-0.1954765-0.5076447-0.312912-1.1134033-0.312912-1.7972031c-0.0193253-0.547039,0-1.1134033,0.0787849-1.719162
				c0.3508186-2.6363487,1.3668575-4.6684227,2.6757412-6.739151l3.1254139-0.3515625
				c-1.7972069,2.5791168-2.6564159,4.6491013-2.9693298,6.5243492c-0.625082,3.3989296,0.703125,5.2355309,2.2855301,4.0827293
				c-0.5269737-0.7811661-1.1327324-1.2694855-1.7191639-1.1721191l0.3523045-0.6050148
				c0.859211-0.2541962,1.640377-0.0200691,2.3828964,0.4883232c0.2541962-0.3322372,0.4682541-0.7231941,0.6644745-1.1921921
				c0.3701439-0.8004913,0.6436653-1.796463,0.859211-2.8125c0.2148018-1.0747566,0.2928429-2.1294441,0.2735214-3.1447372
				c-0.0787888-2.9500046-2.5003319-3.6724548-4.5903835-3.1841316c-2.5597916,0.5856895-4.6691666,2.9886513-3.4576511,4.9813347
				l-2.7158756,1.2888184c-0.5663662-4.1801033,2.4810047-6.6417847,5.801897-7.3642349
				c3.5944099-0.7224503,7.5403862,0.8205605,7.6377525,5.0593796
				C39.0683212,58.1997452,39.0296707,58.8835449,38.9508858,59.6059952z"/>
			<path d="M50.0046654,63.6300125c-1.250164,3.5557632-5.3916168,4.8638992-5.8598709,1.7585526
				c-2.0707245,2.5583038-5.6651382,2.6170273-4.8445778-1.875248l1.2501678-6.2708931h2.656414
				c-0.6057587,3.1841316-1.0940781,5.5090523-1.4850349,7.6771469c-0.390213,2.1487656,1.5236855,0.8592072,2.3836403-0.7618484
				c0.0393906-0.1954727,0.0780411-0.4102783,1.3088799-6.9152985h2.6170235
				c-0.5856895,3.1841316-1.0152931,5.4109421-1.4255753,7.6771469c-0.4102783,2.2662048,2.0313339,0.5663605,2.6370926-1.2895584
				H50.0046654z"/>
			<path d="M60.7462769,63.6694031c-1.3475304,3.5944138-6.0360222,4.8638992-6.2894745,1.504364
				c-2.0707283,3.0860214-6.5243492,2.5196533-6.1727867-1.5236893c0.2735214-3.1454811,1.8165321-6.2902184,5.3128319-6.4076538
				h4.9419441l-0.156086,0.7425194c-0.6057549,2.9886513-1.016037,4.7271385-1.4649658,6.973278
				c-0.4296074,2.2275543,2.422287,0.5470352,3.0666962-1.2888184H60.7462769z M55.4527702,59.0396309
				c-1.1914482-2.1680946-3.4962997-0.0587196-4.1800995,3.1060867c-0.7425194,3.5356941,0.547039,5.3715477,3.2421036,1.7384872
				L55.4527702,59.0396309z"/>
			<path d="M65.4912567,63.7281227c-1.4649658,4.0039482-6.973278,5.078701-5.9386559-0.1367607l2.0513992-10.2555199
				h2.6370888c-0.6644707,3.3208923-1.9339638,9.395565-2.3828926,11.6424446
				c-0.4303474,2.2268066,2.2855263,0.5663681,2.8905449-1.250164H65.4912567z"/>
			<path d="M70.82267,63.5519676c-1.5437546,4.2194939-7.442276,5.3522224-6.348938-0.1166916l1.2895584-6.192852
				h2.6958084c-0.6250839,3.3015671-1.0747528,5.3135757-1.5236816,7.6184235
				c-0.4496765,2.3442459,2.4609375,0.6057587,3.125412-1.3088799H70.82267z M66.3883743,55.7187386
				c-0.2735214-0.2928467-0.4102783-0.6444092-0.4102783-1.093338c0.0193253-0.4303474,0.1560822-0.7819099,0.4489288-1.0940819
				c0.312912-0.2928429,0.6644745-0.4496727,1.1134033-0.4496727c0.4496765,0,0.7819138,0.1568298,1.0747528,0.4496727
				c0.3121719,0.3121719,0.4690018,0.6637344,0.4690018,1.0940819c0,0.4489288-0.1761551,0.8004913-0.488327,1.093338
				c-0.312912,0.2935867-0.6837997,0.4303474-1.1134033,0.4303474C67.0521088,56.149086,66.681221,56.0123253,66.3883743,55.7187386z
				"/>
			<path d="M76.0567169,63.591362c-1.5623398,4.1800995-7.3248444,5.2935028-6.2315063-0.0780449l1.0353622-5.078701
				h-1.1721191l0.4883194-1.1921921h0.9379959l0.5269775-2.5389824l2.7738495-0.547039l-0.6050186,3.0860214h1.581665
				l-0.5663681,1.1921921h-1.2300949l-1.3088837,6.4849548c-0.4496765,2.2855225,2.3241806,0.5856857,2.9886551-1.3282089H76.0567169
				z"/>
			<path d="M82.7356644,63.6500778c-0.9372559,1.8551788-2.9492645,3.5356979-5.1760712,3.4769745
				c-3.6925278-0.1174316-3.7504959-4.7858582-1.9339676-7.6771431c1.4842911-2.3048515,4.0240173-2.7931747,5.1374207-1.8559227
				c0.9959717,0.8012352,1.0152969,2.2855263,0.4296036,3.4383278c-0.8792801,1.6210518-2.5196533,2.2268105-4.2001648,2.1680908
				c0.0200653,0.9379997,0.3716278,2.0313301,1.2115097,2.4416161c1.5036163,0.703125,3.0666962-1.0353622,3.8285446-1.9919434
				H82.7356644z M77.0512009,62.2824783c3.0867615,0.0973663,3.438324-3.6137352,2.9500046-4.0046921
				c-0.3909607-0.2928429-1.2501678,0.0780411-1.9532928,1.1914482c-0.4102783,0.6250839-0.7618408,1.5043602-0.9766464,2.5984421
				C77.0712662,62.1457176,77.0512009,62.2237587,77.0512009,62.2824783z M81.7783432,52.320549l-1.6990967,3.7304268H78.536232
				l1.1520615-3.7111015L81.7783432,52.320549z"/>
		</g>
		<circle cx="54.1488953" cy="80.2692719" r="2.8178499"/>
		<g>
			<path d="M28.2410831,47.0310745c1.4905281-5.161972,4.2692852-9.8066597,7.8244762-13.0786095
				c2.2130356-2.036871,4.679615-3.7739296,7.0164299-5.3785439c2.1088943-1.4478264,4.1202736-3.0936146,5.6370583-4.3655281
				c2.1051979-1.7654858,3.7216682-4.0524578,4.5855446-6.4770985c0.7896881,0.7529755,1.6196556,1.4956264,2.4718056,2.2115078
				c1.0990639,0.9234066,2.1889458,1.8877316,3.2428856,2.8204422c1.9206161,1.6997089,3.9067535,3.4572906,6.0236778,5.03195
				c2.0415878,1.5188274,4.1763611,2.9763393,6.2408981,4.3857975c1.1333466,0.77388,2.3053207,1.5740204,3.4472198,2.3742905
				c0.3015976,0.2113457,0.6318741,0.242321,0.9302826,0.0870628c0.3607483-0.1876411,0.6126328-0.6339188,0.6126328-1.0854225
				c0-0.346981-0.1458282-0.6402931-0.4107132-0.8258896c-1.0181198-0.7135887-2.0408249-1.4194012-3.0630188-2.1249561
				c-4.8792419-3.367424-9.9245758-6.8494453-14.2536469-11.0914516c-0.6506157-0.6376133-1.3639488-1.2292118-2.0536995-1.8011761
				c-0.5547562-0.4601746-1.1283798-0.9358997-1.6614647-1.4295979c-0.2975197-0.2754669-0.6038361-0.5703087-0.9337311-0.8985481
				c0.0095596-0.061697,0.0186081-0.1235209,0.0272789-0.1854715c6.3891411,1.1895666,12.8564262,2.2591829,19.4704247,3.3406534
				c0.2887268,0.0472927,0.5681458-0.0355644,0.8079224-0.2392635c0.3518219-0.2989216,0.58815-0.8506203,0.58815-1.3728714
				c0-0.5722218-0.2888489-0.974905-0.7539978-1.0508785c-6.809288-1.1133394-13.4691811-2.2155876-20.0689049-3.4533396
				c-0.0217972-0.2104559-0.0480576-0.4094391-0.0792885-0.6035786c-0.320591-1.9934044-1.4520302-4.2001967-3.3630905-6.5591903
				c-1.2065201-1.4896357-3.1123505-3.1239519-5.33992-2.4503908c-0.4275398,0.1292562-0.7217445,0.5103972-0.7677612,0.9947901
				c-0.1228828,1.2925644,0.1868706,2.5087729,0.9989929,3.8996181c0.6968918,1.1931357,1.5083771,2.3628173,2.312851,3.4999938
				c-4.4620247-0.9088745-8.5184326-1.8205528-12.3805733-2.7823277c-0.2842636-0.0708742-0.5625343-0.0081577-0.8047295,0.1811371
				c-0.3622742,0.2831154-0.6057472,0.8372355-0.6057472,1.3788633c0,0.5718384,0.2716446,0.9807682,0.7263336,1.0939627
				c4.7642593,1.186636,9.8586731,2.3053284,15.5705566,3.4191771c0.5067024,0.5964403,1.0364723,1.1843405,1.5770836,1.750061
				c-0.9059448,3.4515533-3.7693443,5.7763844-6.5396881,8.025753c-0.2965012,0.2407951-0.5912132,0.4800587-0.8814697,0.7190685
				c-1.3098984,1.0787945-2.7120895,2.0800858-4.0681343,3.0483608c-2.6059074,1.8608341-5.3005333,3.7850208-7.4546814,6.3415966
				c-3.0140686,3.5773697-5.1781578,7.5934944-6.4320984,11.9365883c-0.0328884,0.1140862-0.0495872,0.2298317-0.0495872,0.3439178
				v0.0001297c0,0.6049805,0.4536724,1.0306091,0.8921757,1.0925598
				C27.6294727,47.8036842,28.0655537,47.6396255,28.2410831,47.0310745z M51.882515,12.0289698
				c-0.3495255-0.0675602-0.6987991-0.1360121-1.0480728-0.2043371l-0.1210976-0.0237093
				c-0.7940216-1.0335417-1.521122-2.1399975-2.2248917-3.2108879l-0.3615112-0.5491486
				c-0.1485062-0.224988-0.3041496-0.4467893-0.4596634-0.6682076c-0.5710754-0.8133979-1.1135941-1.5860043-1.2900162-2.4867201
				c1.7141151,0.1496515,3.1410332,2.3719954,3.8460808,3.4701657C51.0747261,9.6822138,51.6078148,10.8600531,51.882515,12.0289698z
				"/>
		</g>
	</g>
</svg>