<svg viewBox="0 0 24 24">
	<path d="M12,1.9999853c-5.52,0-10,4.48-10,10s4.48,9.999999,10,9.999999s10-4.4799995,10-9.999999
		S17.5200005,1.9999853,12,1.9999853z M12,4.9999852c1.6599998,0,3,1.3400002,3,3s-1.3400002,3.0000005-3,3.0000005
		S9,9.6599855,9,7.9999852S10.3400002,4.9999852,12,4.9999852z M12,19.1999855c-2.5,0-4.71-1.2800007-6-3.2199993
		c0.0300002-1.9899998,4-3.0799999,6-3.0799999c1.9899998,0,5.9699993,1.0900002,6,3.0799999
		C16.7099991,17.9199848,14.5,19.1999855,12,19.1999855z"/>
	<path fill="none" d="M0-0.0000146h24v24H0V-0.0000146z"/>
</svg>